<?xml version="1.0" encoding="UTF-8"?>
<svg xmlns="http://www.w3.org/2000/svg" viewBox="0 0 480 120" width="480" height="120" preserveAspectRatio="xMidYMid meet" role="img" aria-labelledby="logo-title">
  <title id="logo-title">ulpExtractor</title>

  <!-- Icon mark (standalone, transparent bg) -->
  <g transform="translate(20, 28) scale(0.68)">
    <path d="M 104 0 L 0 0 L 0 104 L 104 104" fill="none" stroke="#00D4FF" stroke-width="5.5" stroke-linecap="round" stroke-linejoin="round"/>
    <rect x="8" y="24" width="72" height="9" rx="4.5" fill="#00D4FF"/>
    <rect x="8" y="47" width="88" height="9" rx="4.5" fill="#00D4FF"/>
    <rect x="8" y="70" width="76" height="9" rx="4.5" fill="#00D4FF"/>
    <circle cx="98" cy="32" r="4" fill="#FFB347"/>
    <circle cx="98" cy="55" r="4" fill="#FFB347"/>
  </g>

  <!-- Divider -->
  <line x1="112" y1="34" x2="112" y2="98" stroke="#00D4FF" stroke-width="0.8" opacity="0.15"/>

  <!-- Wordmark: "ulp" (monoline, muted cyan) -->
  <g fill="none" stroke="#0098B0" stroke-width="4.5" stroke-linecap="round" stroke-linejoin="round">
    <path d="M 128,73 L 128,53 C 128,47 132,45 136,45 C 140,45 144,47 144,53 L 144,73"/>
    <path d="M 152,45 L 152,73"/>
    <path d="M 164,51 L 164,81 M 164,51 L 180,51 C 186,51 190,55 190,61 C 190,67 186,71 180,71 L 164,71"/>
  </g>

  <!-- Custom "E" (beam motif) -->
  <g>
    <rect x="202" y="45" width="5" height="28" rx="2.5" fill="#00D4FF"/>
    <rect x="202" y="47" width="22" height="5" rx="2.5" fill="#00D4FF"/>
    <rect x="202" y="57" width="30" height="5" rx="2.5" fill="#00D4FF"/>
    <rect x="202" y="67" width="26" height="5" rx="2.5" fill="#00D4FF"/>
    <circle cx="238" cy="53" r="2.5" fill="#FFB347"/>
    <circle cx="238" cy="64" r="2.5" fill="#FFB347"/>
  </g>

  <!-- Wordmark: "xtractor" (monoline, dark navy) -->
  <g fill="none" stroke="#0A1628" stroke-width="4.5" stroke-linecap="round" stroke-linejoin="round">
    <path d="M 252,45 L 274,73 M 274,45 L 252,73"/>
    <path d="M 282,51 L 282,75 M 275,58 L 289,58"/>
    <path d="M 297,73 L 297,51 C 297,47 301,45 305,45 C 310,45 314,48 314,51"/>
    <path d="M 322,73 L 322,51 C 322,47 330,47 334,49 L 342,73 M 334,58 L 334,73 M 326,61 L 334,61"/>
    <path d="M 352,73 C 348,73 344,71 344,59 C 344,47 348,45 352,45"/>
    <path d="M 360,51 L 360,75 M 353,58 L 367,58"/>
    <path d="M 375,59 C 375,47 395,47 395,59 C 395,71 375,73 375,59 Z"/>
    <path d="M 403,73 L 403,51 C 403,47 407,45 411,45 C 416,45 420,48 420,51"/>
  </g>
</svg>
