<?xml version="1.0" encoding="UTF-8"?>
<svg xmlns="http://www.w3.org/2000/svg" viewBox="0 0 480 120" width="480" height="120" preserveAspectRatio="xMidYMid meet" role="img" aria-labelledby="logo-title">
  <title id="logo-title">ulpExtractor</title>

  <!-- Icon mark — abstract "E" (standalone, no background) -->
  <g transform="translate(16, 28) scale(0.72)" fill="#00D4FF">
    <rect x="52" y="66" width="8" rx="4" height="84"/>
    <rect x="52" y="66" width="104" height="12" rx="6"/>
    <rect x="52" y="102" width="132" height="12" rx="6"/>
    <rect x="52" y="138" width="118" height="12" rx="6"/>
    <circle cx="190" cy="108" r="5.5" fill="#FFB347"/>
  </g>

  <!-- Divider -->
  <line x1="112" y1="34" x2="112" y2="98" stroke="#00D4FF" stroke-width="0.8" opacity="0.15"/>

  <!-- "ulp" — monoline, muted cyan -->
  <g fill="none" stroke="#0098B0" stroke-width="4.5" stroke-linecap="round" stroke-linejoin="round">
    <path d="M 128,73 L 128,53 C 128,47 132,45 136,45 C 140,45 144,47 144,53 L 144,73"/>
    <path d="M 152,45 L 152,73"/>
    <path d="M 164,51 L 164,81 M 164,51 L 180,51 C 186,51 190,55 190,61 C 190,67 186,71 180,71 L 164,71"/>
  </g>

  <!-- Icon reused as "E" in wordmark — scaled to match cap-height -->
  <g transform="translate(202, 23) scale(0.333)" fill="#00D4FF">
    <rect x="52" y="66" width="8" rx="4" height="84"/>
    <rect x="52" y="66" width="104" height="12" rx="6"/>
    <rect x="52" y="102" width="132" height="12" rx="6"/>
    <rect x="52" y="138" width="118" height="12" rx="6"/>
    <circle cx="190" cy="108" r="5.5" fill="#FFB347"/>
  </g>

  <!-- "xtractor" — monoline, dark navy -->
  <g fill="none" stroke="#0A1628" stroke-width="4.5" stroke-linecap="round" stroke-linejoin="round">
    <path d="M 274,45 L 296,73 M 296,45 L 274,73"/>
    <path d="M 304,51 L 304,75 M 297,58 L 311,58"/>
    <path d="M 319,73 L 319,51 C 319,47 323,45 327,45 C 332,45 336,48 336,51"/>
    <path d="M 344,73 L 344,51 C 344,47 352,47 356,49 L 364,73 M 356,58 L 356,73 M 348,61 L 356,61"/>
    <path d="M 374,73 C 370,73 366,71 366,59 C 366,47 370,45 374,45"/>
    <path d="M 382,51 L 382,75 M 375,58 L 389,58"/>
    <path d="M 397,59 C 397,47 417,47 417,59 C 417,71 397,73 397,59 Z"/>
    <path d="M 425,73 L 425,51 C 425,47 429,45 433,45 C 438,45 442,48 442,51"/>
  </g>
</svg>
