<?xml version="1.0" encoding="UTF-8"?>
<svg xmlns="http://www.w3.org/2000/svg" viewBox="0 0 540 140" width="540" height="140" preserveAspectRatio="xMidYMid meet" role="img" aria-labelledby="logo-title logo-desc">
  <title id="logo-title">ulpExtractor</title>
  <desc id="logo-desc">ulpExtractor — high-performance Rust CLI for boundary-aware credential extraction</desc>

  <defs>
    <linearGradient id="cyan" x1="0" y1="0" x2="1" y2="0">
      <stop offset="0%" stop-color="#00D4FF"/>
      <stop offset="100%" stop-color="#00A8CC"/>
    </linearGradient>
  </defs>

  <!-- Icon mark (standalone, no background) -->
  <g transform="translate(28, 32) scale(0.72)">
    <path d="M 104 0 L 0 0 L 0 104 L 104 104" fill="none" stroke="url(#cyan)" stroke-width="5" stroke-linecap="round" stroke-linejoin="round"/>
    <rect x="8" y="24" width="72" height="9" rx="4.5" fill="url(#cyan)"/>
    <rect x="8" y="47" width="88" height="9" rx="4.5" fill="url(#cyan)"/>
    <rect x="8" y="70" width="76" height="9" rx="4.5" fill="url(#cyan)"/>
    <circle cx="98" cy="32" r="4" fill="#FFB347"/>
    <circle cx="98" cy="55" r="4" fill="#FFB347"/>
  </g>

  <!-- Divider -->
  <line x1="120" y1="38" x2="120" y2="102" stroke="#00D4FF" stroke-width="0.8" opacity="0.15"/>

  <!-- Path-based wordmark: "ulp" (monoline strokes) -->
  <g fill="none" stroke="#0098B0" stroke-width="4.5" stroke-linecap="round" stroke-linejoin="round">
    <!-- u: 136,54 -->
    <path d="M 136,77 L 136,57 C 136,51 140,49 144,49 C 148,49 152,51 152,57 L 152,77"/>
    <!-- l: 160,49–77 -->
    <path d="M 160,49 L 160,77"/>
    <!-- p: descender goes to 82, bowl starts at y=55 -->
    <path d="M 172,55 L 172,85 M 172,55 L 188,55 C 194,55 198,59 198,65 C 198,71 194,75 188,75 L 172,75"/>
  </g>

  <!-- Custom "E" (beam motif) at x=210, y=49 -->
  <g>
    <rect x="210" y="49" width="5" height="28" rx="2.5" fill="url(#cyan)"/>
    <rect x="210" y="51" width="22" height="5" rx="2.5" fill="url(#cyan)"/>
    <rect x="210" y="61" width="30" height="5" rx="2.5" fill="url(#cyan)"/>
    <rect x="210" y="71" width="26" height="5" rx="2.5" fill="url(#cyan)"/>
    <circle cx="246" cy="57" r="2.5" fill="#FFB347"/>
    <circle cx="246" cy="68" r="2.5" fill="#FFB347"/>
  </g>

  <!-- Path-based wordmark: "xtractor" (monoline strokes) -->
  <g fill="none" stroke="#0A1628" stroke-width="4.5" stroke-linecap="round" stroke-linejoin="round">
    <!-- x: 260,49–77 -->
    <path d="M 260,49 L 282,77 M 282,49 L 260,77"/>
    <!-- t: 290,49(bar) + vertical -->
    <path d="M 290,55 L 290,79 M 283,62 L 297,62"/>
    <!-- r: 305,55–77 + arm -->
    <path d="M 305,77 L 305,55 C 305,51 309,49 313,49 C 318,49 322,52 322,55"/>
    <!-- a: 330,55–77 -->
    <path d="M 330,77 L 330,55 C 330,51 338,51 342,53 L 350,77 M 342,62 L 342,77 M 334,65 L 342,65"/>
    <!-- c: 358,49–77 -->
    <path d="M 378,49 C 374,49 358,51 358,63 C 358,75 374,77 378,77"/>
    <!-- t: 384,55–79 -->
    <path d="M 384,55 L 384,79 M 377,62 L 391,62"/>
    <!-- o: 399,49–77 -->
    <path d="M 399,63 C 399,51 419,51 419,63 C 419,75 399,77 399,63 Z"/>
    <!-- r: 427,55–77 -->
    <path d="M 427,77 L 427,55 C 427,51 431,49 435,49 C 440,49 444,52 444,55"/>
  </g>

  <!-- Tagline (system font stack — acceptable for small supporting text) -->
  <text x="136" y="116" font-family="'Segoe UI','Helvetica Neue',Arial,sans-serif" font-weight="600" font-size="9" fill="#6B7B8D" letter-spacing="3.5">BOUNDARY-AWARE CREDENTIAL EXTRACTION</text>
</svg>
